<svg id="maximize" xmlns="http://www.w3.org/2000/svg" width="24" height="24" viewBox="0 0 24 24">
  <path id="Path_15837" data-name="Path 15837" d="M102.059,24.423a1.091,1.091,0,0,0-1.091-1.091H94.423a1.091,1.091,0,0,0-1.091,1.091v6.545a1.091,1.091,0,0,0,2.182,0V27.052l5.771,5.782a1.1,1.1,0,0,0,1.549-1.549l-5.782-5.771h3.916a1.091,1.091,0,0,0,1.091-1.091Z" transform="translate(-93.332 -23.332)"/>
  <path id="Path_15838" data-name="Path 15838" d="M404.487,23.419a1.093,1.093,0,0,0-.415-.087h-6.545a1.091,1.091,0,0,0,0,2.182h3.916l-5.781,5.771a1.091,1.091,0,1,0,1.538,1.538l5.782-5.771v3.916a1.091,1.091,0,0,0,2.182,0V24.423a1.091,1.091,0,0,0-.676-1Z" transform="translate(-381.164 -23.332)"/>
  <path id="Path_15839" data-name="Path 15839" d="M93.331,336.719a1.091,1.091,0,0,0,1.091,1.091h6.545a1.091,1.091,0,0,0,0-2.182H97.051l5.771-5.771a1.091,1.091,0,0,0-1.538-1.538l-5.771,5.771v-3.916a1.091,1.091,0,0,0-2.182,0Z" transform="translate(-93.331 -313.81)"/>
  <path id="Path_15840" data-name="Path 15840" d="M406.719,329.085a1.091,1.091,0,0,0-1.091,1.091v3.916l-5.771-5.771h0a1.091,1.091,0,0,0-1.538,1.538l5.771,5.771h-3.916a1.091,1.091,0,0,0,0,2.182h6.545a1.091,1.091,0,0,0,1.091-1.091v-6.545a1.091,1.091,0,0,0-1.091-1.091Z" transform="translate(-383.811 -313.813)"/>
</svg>
