<svg xmlns="http://www.w3.org/2000/svg" width="24.009" height="24" viewBox="0 0 24.009 24">
  <g id="noun-night-mode-2448868" transform="translate(-139.923 -70)">
    <path id="Path_15858" data-name="Path 15858" d="M147.2,87.228A11.991,11.991,0,1,0,162.888,103.1,11.98,11.98,0,0,1,147.2,87.228Z" transform="translate(0 -16.244)"/>
    <path id="Path_15859" data-name="Path 15859" d="M527.08,71a1,1,0,1,1-.293-.707A1,1,0,0,1,527.08,71Z" transform="translate(-363.148 0)"/>
    <path id="Path_15860" data-name="Path 15860" d="M421.61,71a1,1,0,1,1-.293-.707A1,1,0,0,1,421.61,71Z" transform="translate(-263.705 0)"/>
    <path id="Path_15861" data-name="Path 15861" d="M351.3,141.31a1,1,0,1,1-.293-.707A1,1,0,0,1,351.3,141.31Z" transform="translate(-197.412 -66.292)"/>
    <path id="Path_15862" data-name="Path 15862" d="M457.55,247.56a1,1,0,1,1-.293-.707A1,1,0,0,1,457.55,247.56Z" transform="translate(-297.591 -166.471)"/>
    <path id="Path_15863" data-name="Path 15863" d="M491.8,172.43a1,1,0,1,1-.293-.707A1,1,0,0,1,491.8,172.43Z" transform="translate(-329.884 -95.634)"/>
  </g>
</svg>
