<svg xmlns="http://www.w3.org/2000/svg" width="24" height="18.913" viewBox="0 0 24 18.913">
  <g id="Group_13477" data-name="Group 13477" transform="translate(0 0)">
    <path id="Path_15846" data-name="Path 15846" d="M302.621,230.27a2.348,2.348,0,1,1-2.348-2.348,2.348,2.348,0,0,1,2.348,2.348" transform="translate(-288.267 -220.801)" fill="#263238"/>
    <path id="Path_15847" data-name="Path 15847" d="M91.02,79.5a1.169,1.169,0,0,0-1.035-.606H88.647a7.167,7.167,0,0,1,7.121-6.54,6.944,6.944,0,0,1,3.459.909,1.17,1.17,0,1,0,1.136-2.045,9.411,9.411,0,0,0-14.015,7.651H84.935a1.157,1.157,0,0,0-.985,1.793l2.525,3.889a1.179,1.179,0,0,0,1.97,0l2.525-3.889a1.075,1.075,0,0,0,.05-1.162Z" transform="translate(-83.762 -70.001)" fill="#263238"/>
    <path id="Path_15848" data-name="Path 15848" d="M251.888,160.344l-2.525-3.889a1.206,1.206,0,0,0-1.944,0l-2.55,3.889a1.157,1.157,0,0,0,.985,1.793h1.338a7.167,7.167,0,0,1-7.121,6.54,7.013,7.013,0,0,1-3.459-.909,1.17,1.17,0,1,0-1.136,2.045,9.469,9.469,0,0,0,14.04-7.676H250.9a1.169,1.169,0,0,0,1.035-.606,1.238,1.238,0,0,0-.051-1.187Z" transform="translate(-228.065 -152.087)" fill="#263238"/>
  </g>
</svg>
